<?xml version="1.0" encoding="UTF-8"?>
<svg xmlns="http://www.w3.org/2000/svg" xmlns:xlink="http://www.w3.org/1999/xlink" width="32px" height="32px" viewBox="0 0 32 32" version="1.1">
<g id="surface1">
<path style=" stroke:none;fill-rule:nonzero;fill:rgb(99.607843%,99.607843%,99.607843%);fill-opacity:1;" d="M 4.84375 -0.015625 C 4.96875 -0.015625 5.089844 -0.015625 5.214844 -0.015625 C 5.433594 -0.015625 5.648438 -0.015625 5.863281 -0.015625 C 6.1875 -0.015625 6.507812 -0.015625 6.828125 -0.015625 C 7.40625 -0.015625 7.980469 -0.015625 8.554688 -0.015625 C 9.058594 -0.015625 9.558594 -0.015625 10.0625 -0.015625 C 10.113281 -0.015625 10.113281 -0.015625 10.164062 -0.015625 C 10.300781 -0.015625 10.4375 -0.015625 10.570312 -0.015625 C 11.84375 -0.015625 13.113281 -0.015625 14.386719 -0.015625 C 15.515625 -0.0117188 16.644531 -0.0117188 17.773438 -0.0117188 C 18.0625 -0.0117188 18.351562 -0.0117188 18.640625 -0.0117188 C 18.675781 -0.0117188 18.710938 -0.0117188 18.746094 -0.0117188 C 19.691406 -0.015625 20.636719 -0.0117188 21.582031 -0.0117188 C 21.683594 -0.0117188 21.785156 -0.0117188 21.886719 -0.0117188 C 21.953125 -0.0117188 22.019531 -0.0117188 22.085938 -0.0117188 C 22.589844 -0.0117188 23.09375 -0.0117188 23.59375 -0.0117188 C 24.167969 -0.0117188 24.738281 -0.0117188 25.308594 -0.0117188 C 25.628906 -0.0117188 25.949219 -0.0117188 26.269531 -0.0117188 C 26.484375 -0.0117188 26.695312 -0.0117188 26.910156 -0.0117188 C 27.03125 -0.0117188 27.152344 -0.0117188 27.273438 -0.0117188 C 28.675781 -0.015625 29.835938 0.308594 30.855469 1.316406 C 31.269531 1.734375 31.578125 2.25 31.785156 2.796875 C 31.796875 2.828125 31.796875 2.828125 31.808594 2.859375 C 31.835938 2.933594 31.859375 3.007812 31.882812 3.085938 C 31.890625 3.117188 31.902344 3.148438 31.910156 3.179688 C 32.035156 3.628906 32.015625 4.085938 32.015625 4.546875 C 32.015625 4.671875 32.015625 4.800781 32.015625 4.925781 C 32.015625 5.148438 32.015625 5.371094 32.015625 5.59375 C 32.015625 5.921875 32.015625 6.25 32.015625 6.582031 C 32.015625 7.171875 32.015625 7.761719 32.015625 8.347656 C 32.015625 8.867188 32.015625 9.382812 32.015625 9.898438 C 32.015625 9.964844 32.015625 10.035156 32.015625 10.105469 C 32.015625 10.210938 32.015625 10.3125 32.015625 10.417969 C 32.019531 11.386719 32.019531 12.359375 32.015625 13.328125 C 32.015625 13.363281 32.015625 13.402344 32.015625 13.4375 C 32.015625 13.734375 32.015625 14.03125 32.015625 14.328125 C 32.015625 15.484375 32.015625 16.644531 32.019531 17.800781 C 32.019531 19.101562 32.019531 20.402344 32.019531 21.703125 C 32.019531 21.84375 32.019531 21.980469 32.019531 22.121094 C 32.019531 22.15625 32.019531 22.1875 32.019531 22.222656 C 32.019531 22.738281 32.019531 23.253906 32.019531 23.769531 C 32.019531 24.355469 32.019531 24.941406 32.019531 25.527344 C 32.019531 25.855469 32.019531 26.183594 32.019531 26.511719 C 32.019531 26.730469 32.019531 26.949219 32.019531 27.171875 C 32.019531 27.296875 32.019531 27.417969 32.019531 27.542969 C 32.019531 28.054688 32.011719 28.542969 31.851562 29.035156 C 31.84375 29.054688 31.835938 29.078125 31.832031 29.101562 C 31.617188 29.75 31.253906 30.296875 30.785156 30.785156 C 30.765625 30.804688 30.746094 30.824219 30.730469 30.84375 C 30.144531 31.480469 29.167969 31.941406 28.308594 32.007812 C 28.195312 32.011719 28.085938 32.011719 27.976562 32.011719 C 27.933594 32.011719 27.890625 32.011719 27.847656 32.011719 C 27.730469 32.011719 27.613281 32.011719 27.5 32.011719 C 27.371094 32.011719 27.246094 32.011719 27.117188 32.011719 C 26.894531 32.011719 26.675781 32.011719 26.453125 32.011719 C 26.121094 32.011719 25.792969 32.011719 25.460938 32.011719 C 24.839844 32.015625 24.214844 32.015625 23.589844 32.015625 C 23.109375 32.015625 22.625 32.015625 22.144531 32.015625 C 22.074219 32.015625 22.007812 32.015625 21.9375 32.015625 C 21.902344 32.015625 21.867188 32.015625 21.832031 32.015625 C 21.78125 32.015625 21.78125 32.015625 21.730469 32.015625 C 21.695312 32.015625 21.660156 32.015625 21.625 32.015625 C 20.652344 32.015625 19.683594 32.015625 18.714844 32.015625 C 18.675781 32.015625 18.640625 32.015625 18.601562 32.015625 C 18.417969 32.015625 18.230469 32.015625 18.046875 32.015625 C 18.007812 32.015625 17.972656 32.015625 17.933594 32.015625 C 17.859375 32.015625 17.785156 32.015625 17.710938 32.015625 C 16.554688 32.015625 15.394531 32.015625 14.238281 32.015625 C 12.9375 32.015625 11.632812 32.019531 10.332031 32.015625 C 10.195312 32.015625 10.054688 32.015625 9.917969 32.015625 C 9.882812 32.015625 9.847656 32.015625 9.8125 32.015625 C 9.296875 32.015625 8.78125 32.019531 8.265625 32.019531 C 7.679688 32.019531 7.09375 32.019531 6.507812 32.019531 C 6.179688 32.019531 5.851562 32.019531 5.523438 32.019531 C 5.304688 32.019531 5.082031 32.019531 4.863281 32.019531 C 4.738281 32.019531 4.613281 32.019531 4.488281 32.019531 C 3.21875 32.023438 2.167969 31.671875 1.246094 30.785156 C 1.226562 30.765625 1.203125 30.746094 1.183594 30.726562 C 0.484375 30.074219 0.0742188 29.054688 0 28.113281 C -0.00390625 27.976562 -0.00390625 27.84375 -0.00390625 27.707031 C -0.00390625 27.664062 -0.00390625 27.621094 -0.00390625 27.582031 C -0.00390625 27.46875 -0.00390625 27.355469 -0.00390625 27.242188 C -0.00390625 27.117188 -0.00390625 26.992188 -0.00390625 26.867188 C -0.00390625 26.625 -0.00390625 26.378906 -0.00390625 26.132812 C -0.00390625 25.839844 -0.00390625 25.542969 -0.00390625 25.25 C -0.00390625 24.539062 -0.00390625 23.828125 -0.0078125 23.117188 C -0.0078125 22.78125 -0.0078125 22.445312 -0.0078125 22.109375 C -0.0078125 20.957031 -0.0078125 19.808594 -0.0078125 18.65625 C -0.0078125 18.585938 -0.0078125 18.511719 -0.0078125 18.441406 C -0.0078125 18.367188 -0.0078125 18.292969 -0.0078125 18.222656 C -0.0078125 18.078125 -0.0078125 17.929688 -0.0078125 17.785156 C -0.0078125 17.75 -0.0078125 17.714844 -0.0078125 17.675781 C -0.0078125 16.507812 -0.0078125 15.339844 -0.0078125 14.171875 C -0.0078125 12.9375 -0.0078125 11.703125 -0.0078125 10.46875 C -0.0078125 10.332031 -0.0078125 10.195312 -0.0078125 10.0625 C -0.0078125 10.027344 -0.0078125 9.992188 -0.0078125 9.960938 C -0.0078125 9.421875 -0.0117188 8.886719 -0.0117188 8.347656 C -0.0117188 7.808594 -0.0117188 7.269531 -0.0117188 6.726562 C -0.0117188 6.40625 -0.0117188 6.085938 -0.0117188 5.765625 C -0.0117188 5.550781 -0.0117188 5.335938 -0.0117188 5.121094 C -0.0117188 5 -0.0117188 4.878906 -0.0117188 4.757812 C -0.015625 3.4375 0.269531 2.253906 1.210938 1.28125 C 2.222656 0.265625 3.449219 -0.0195312 4.84375 -0.015625 Z M 4.84375 -0.015625 "/>
<path style=" stroke:none;fill-rule:nonzero;fill:rgb(0%,0%,0%);fill-opacity:1;" d="M 9.105469 7.589844 C 9.140625 7.589844 9.179688 7.589844 9.21875 7.585938 C 9.257812 7.585938 9.300781 7.585938 9.34375 7.585938 C 9.386719 7.585938 9.429688 7.585938 9.472656 7.585938 C 9.597656 7.585938 9.71875 7.585938 9.839844 7.585938 C 9.96875 7.585938 10.101562 7.585938 10.230469 7.585938 C 10.546875 7.585938 10.863281 7.585938 11.179688 7.585938 C 11.332031 7.585938 11.480469 7.585938 11.628906 7.585938 C 12.125 7.585938 12.625 7.582031 13.121094 7.582031 C 13.25 7.582031 13.378906 7.582031 13.507812 7.582031 C 13.554688 7.582031 13.554688 7.582031 13.605469 7.582031 C 14.121094 7.582031 14.640625 7.582031 15.160156 7.582031 C 15.691406 7.582031 16.222656 7.578125 16.757812 7.578125 C 17.054688 7.578125 17.355469 7.578125 17.652344 7.578125 C 17.90625 7.578125 18.160156 7.578125 18.417969 7.578125 C 18.546875 7.578125 18.675781 7.578125 18.804688 7.578125 C 19.589844 7.574219 20.386719 7.597656 21.144531 7.828125 C 21.183594 7.839844 21.21875 7.851562 21.253906 7.859375 C 21.925781 8.0625 22.523438 8.507812 22.894531 9.105469 C 22.921875 9.148438 22.921875 9.148438 22.953125 9.195312 C 23.957031 10.847656 23.898438 13.402344 23.605469 15.242188 C 23.601562 15.277344 23.601562 15.277344 23.597656 15.308594 C 23.421875 16.378906 23.070312 17.503906 22.164062 18.175781 C 21.9375 18.335938 21.699219 18.460938 21.441406 18.566406 C 21.417969 18.578125 21.390625 18.585938 21.363281 18.597656 C 20.664062 18.875 19.890625 18.894531 19.148438 18.894531 C 19.085938 18.894531 19.023438 18.894531 18.960938 18.894531 C 18.789062 18.894531 18.617188 18.894531 18.449219 18.894531 C 18.269531 18.894531 18.089844 18.894531 17.914062 18.894531 C 17.574219 18.894531 17.238281 18.894531 16.902344 18.894531 C 16.515625 18.894531 16.132812 18.894531 15.746094 18.894531 C 14.957031 18.894531 14.164062 18.890625 13.375 18.890625 C 13.375 18.929688 13.375 18.929688 13.375 18.972656 C 13.378906 19.609375 13.382812 20.246094 13.382812 20.882812 C 13.382812 21.191406 13.386719 21.5 13.386719 21.808594 C 13.386719 22.078125 13.390625 22.347656 13.390625 22.617188 C 13.390625 22.757812 13.390625 22.902344 13.390625 23.042969 C 13.390625 23.179688 13.390625 23.3125 13.390625 23.445312 C 13.390625 23.496094 13.390625 23.542969 13.394531 23.59375 C 13.398438 24.097656 13.398438 24.097656 13.226562 24.289062 C 13.046875 24.441406 12.851562 24.425781 12.625 24.421875 C 12.585938 24.421875 12.542969 24.425781 12.503906 24.425781 C 12.394531 24.425781 12.289062 24.425781 12.179688 24.425781 C 12.089844 24.425781 12 24.425781 11.910156 24.425781 C 11.695312 24.425781 11.480469 24.425781 11.269531 24.425781 C 11.046875 24.425781 10.828125 24.425781 10.609375 24.425781 C 10.417969 24.425781 10.230469 24.425781 10.042969 24.425781 C 9.929688 24.425781 9.816406 24.425781 9.703125 24.425781 C 9.597656 24.425781 9.492188 24.425781 9.386719 24.425781 C 9.328125 24.425781 9.269531 24.425781 9.214844 24.425781 C 9.03125 24.425781 8.894531 24.414062 8.738281 24.3125 C 8.585938 24.144531 8.554688 23.964844 8.554688 23.742188 C 8.554688 23.714844 8.554688 23.6875 8.554688 23.660156 C 8.554688 23.566406 8.554688 23.476562 8.554688 23.382812 C 8.554688 23.316406 8.554688 23.25 8.554688 23.183594 C 8.554688 23 8.554688 22.820312 8.554688 22.636719 C 8.554688 22.460938 8.554688 22.28125 8.554688 22.105469 C 8.554688 21.722656 8.554688 21.335938 8.554688 20.953125 C 8.554688 20.617188 8.554688 20.28125 8.554688 19.945312 C 8.554688 19.921875 8.554688 19.902344 8.554688 19.878906 C 8.554688 19.789062 8.554688 19.695312 8.554688 19.605469 C 8.554688 18.757812 8.554688 17.910156 8.554688 17.0625 C 8.554688 16.308594 8.554688 15.554688 8.554688 14.800781 C 8.554688 13.953125 8.554688 13.105469 8.554688 12.257812 C 8.554688 12.167969 8.554688 12.078125 8.554688 11.988281 C 8.554688 11.964844 8.554688 11.941406 8.554688 11.917969 C 8.554688 11.585938 8.554688 11.25 8.554688 10.914062 C 8.554688 10.53125 8.554688 10.148438 8.554688 9.765625 C 8.554688 9.570312 8.554688 9.378906 8.554688 9.183594 C 8.554688 9.003906 8.554688 8.824219 8.554688 8.648438 C 8.554688 8.582031 8.554688 8.519531 8.554688 8.453125 C 8.554688 8.367188 8.554688 8.277344 8.554688 8.191406 C 8.554688 8.164062 8.554688 8.140625 8.554688 8.113281 C 8.558594 7.957031 8.585938 7.867188 8.691406 7.742188 C 8.828125 7.617188 8.921875 7.589844 9.105469 7.589844 Z M 9.105469 7.589844 "/>
<path style=" stroke:none;fill-rule:nonzero;fill:rgb(99.607843%,99.607843%,99.607843%);fill-opacity:1;" d="M 13.375 11.03125 C 14.035156 11.03125 14.695312 11.027344 15.375 11.027344 C 15.582031 11.027344 15.789062 11.023438 16.003906 11.023438 C 16.261719 11.023438 16.261719 11.023438 16.378906 11.023438 C 16.464844 11.023438 16.546875 11.023438 16.628906 11.023438 C 18.023438 11.015625 18.023438 11.015625 18.460938 11.425781 C 18.734375 11.738281 18.820312 12.117188 18.882812 12.511719 C 18.890625 12.5625 18.898438 12.609375 18.90625 12.65625 C 18.933594 12.824219 18.925781 12.992188 18.925781 13.15625 C 18.925781 13.222656 18.925781 13.285156 18.929688 13.351562 C 18.929688 13.734375 18.910156 14.121094 18.78125 14.484375 C 18.769531 14.519531 18.769531 14.519531 18.757812 14.554688 C 18.640625 14.867188 18.460938 15.113281 18.164062 15.277344 C 17.832031 15.425781 17.507812 15.46875 17.148438 15.464844 C 17.105469 15.464844 17.066406 15.464844 17.023438 15.464844 C 16.910156 15.464844 16.800781 15.464844 16.6875 15.464844 C 16.582031 15.460938 16.476562 15.460938 16.371094 15.460938 C 16.066406 15.460938 15.757812 15.460938 15.453125 15.457031 C 14.765625 15.457031 14.082031 15.453125 13.375 15.453125 C 13.375 13.992188 13.375 12.535156 13.375 11.03125 Z M 13.375 11.03125 "/>
</g>
</svg>
