<?xml version="1.0" encoding="UTF-8"?>
<svg xmlns="http://www.w3.org/2000/svg" xmlns:xlink="http://www.w3.org/1999/xlink" width="36px" height="36px" viewBox="0 0 36 36" version="1.1">
<g id="surface1">
<path style=" stroke:none;fill-rule:nonzero;fill:rgb(99.607843%,99.607843%,99.607843%);fill-opacity:1;" d="M 5.449219 -0.015625 C 5.589844 -0.015625 5.726562 -0.015625 5.867188 -0.015625 C 6.109375 -0.0195312 6.355469 -0.0195312 6.597656 -0.015625 C 6.960938 -0.015625 7.320312 -0.015625 7.683594 -0.015625 C 8.332031 -0.0195312 8.976562 -0.0195312 9.625 -0.015625 C 10.1875 -0.015625 10.753906 -0.015625 11.320312 -0.015625 C 11.378906 -0.015625 11.378906 -0.015625 11.433594 -0.015625 C 11.585938 -0.015625 11.742188 -0.015625 11.894531 -0.015625 C 13.324219 -0.015625 14.753906 -0.015625 16.183594 -0.015625 C 17.453125 -0.015625 18.722656 -0.015625 19.992188 -0.015625 C 20.320312 -0.015625 20.644531 -0.015625 20.96875 -0.015625 C 21.007812 -0.015625 21.050781 -0.015625 21.089844 -0.015625 C 22.152344 -0.015625 23.214844 -0.015625 24.277344 -0.015625 C 24.390625 -0.015625 24.507812 -0.015625 24.621094 -0.015625 C 24.695312 -0.015625 24.773438 -0.015625 24.847656 -0.015625 C 25.414062 -0.015625 25.980469 -0.015625 26.542969 -0.015625 C 27.1875 -0.015625 27.832031 -0.015625 28.472656 -0.015625 C 28.832031 -0.0117188 29.191406 -0.0117188 29.554688 -0.015625 C 29.792969 -0.015625 30.035156 -0.015625 30.273438 -0.0117188 C 30.410156 -0.0117188 30.546875 -0.0117188 30.683594 -0.0117188 C 32.261719 -0.015625 33.566406 0.347656 34.714844 1.480469 C 35.179688 1.953125 35.523438 2.53125 35.757812 3.148438 C 35.773438 3.179688 35.773438 3.179688 35.785156 3.21875 C 35.816406 3.300781 35.839844 3.386719 35.867188 3.46875 C 35.878906 3.507812 35.890625 3.542969 35.902344 3.578125 C 36.039062 4.082031 36.019531 4.597656 36.015625 5.113281 C 36.015625 5.257812 36.015625 5.398438 36.019531 5.542969 C 36.019531 5.792969 36.019531 6.042969 36.019531 6.289062 C 36.019531 6.660156 36.019531 7.03125 36.019531 7.402344 C 36.019531 8.066406 36.019531 8.730469 36.019531 9.394531 C 36.019531 9.972656 36.019531 10.554688 36.019531 11.132812 C 36.019531 11.210938 36.019531 11.289062 36.019531 11.367188 C 36.019531 11.484375 36.019531 11.601562 36.019531 11.71875 C 36.019531 12.8125 36.019531 13.902344 36.019531 14.992188 C 36.019531 15.035156 36.019531 15.074219 36.019531 15.117188 C 36.019531 15.453125 36.019531 15.785156 36.019531 16.121094 C 36.019531 17.421875 36.019531 18.722656 36.019531 20.027344 C 36.019531 21.488281 36.019531 22.953125 36.019531 24.417969 C 36.019531 24.574219 36.019531 24.730469 36.019531 24.886719 C 36.019531 24.925781 36.019531 24.960938 36.019531 25.003906 C 36.019531 25.582031 36.019531 26.160156 36.023438 26.742188 C 36.023438 27.402344 36.023438 28.0625 36.023438 28.71875 C 36.019531 29.089844 36.019531 29.457031 36.023438 29.828125 C 36.023438 30.074219 36.023438 30.320312 36.019531 30.566406 C 36.019531 30.707031 36.019531 30.847656 36.023438 30.988281 C 36.023438 31.5625 36.015625 32.109375 35.832031 32.664062 C 35.824219 32.6875 35.816406 32.714844 35.808594 32.738281 C 35.570312 33.46875 35.160156 34.082031 34.632812 34.632812 C 34.613281 34.65625 34.589844 34.675781 34.570312 34.699219 C 33.910156 35.417969 32.8125 35.933594 31.84375 36.007812 C 31.71875 36.011719 31.597656 36.011719 31.472656 36.011719 C 31.425781 36.011719 31.375 36.011719 31.328125 36.011719 C 31.199219 36.015625 31.066406 36.011719 30.9375 36.011719 C 30.792969 36.011719 30.652344 36.011719 30.507812 36.015625 C 30.257812 36.015625 30.007812 36.015625 29.757812 36.015625 C 29.386719 36.015625 29.015625 36.015625 28.644531 36.015625 C 27.941406 36.015625 27.242188 36.015625 26.539062 36.015625 C 25.996094 36.015625 25.457031 36.015625 24.914062 36.015625 C 24.835938 36.015625 24.757812 36.015625 24.679688 36.015625 C 24.640625 36.015625 24.601562 36.015625 24.5625 36.015625 C 24.503906 36.015625 24.503906 36.015625 24.445312 36.015625 C 24.40625 36.015625 24.367188 36.015625 24.328125 36.015625 C 23.234375 36.015625 22.144531 36.015625 21.050781 36.015625 C 21.011719 36.015625 20.96875 36.015625 20.925781 36.015625 C 20.71875 36.015625 20.511719 36.015625 20.300781 36.015625 C 20.261719 36.015625 20.21875 36.015625 20.175781 36.015625 C 20.09375 36.015625 20.007812 36.015625 19.925781 36.015625 C 18.621094 36.015625 17.320312 36.015625 16.015625 36.019531 C 14.554688 36.019531 13.089844 36.019531 11.625 36.019531 C 11.46875 36.019531 11.3125 36.019531 11.15625 36.019531 C 11.117188 36.019531 11.078125 36.019531 11.039062 36.019531 C 10.460938 36.019531 9.878906 36.019531 9.300781 36.019531 C 8.640625 36.019531 7.980469 36.023438 7.320312 36.019531 C 6.949219 36.019531 6.582031 36.019531 6.210938 36.019531 C 5.964844 36.023438 5.71875 36.023438 5.472656 36.019531 C 5.332031 36.019531 5.191406 36.019531 5.050781 36.019531 C 3.621094 36.027344 2.441406 35.632812 1.402344 34.632812 C 1.378906 34.609375 1.355469 34.589844 1.328125 34.566406 C 0.546875 33.832031 0.0820312 32.683594 0 31.628906 C -0.00390625 31.476562 -0.00390625 31.324219 -0.00390625 31.167969 C -0.00390625 31.121094 -0.00390625 31.074219 -0.00390625 31.027344 C -0.00390625 30.902344 -0.00390625 30.773438 -0.00390625 30.644531 C -0.00390625 30.507812 -0.00390625 30.367188 -0.00390625 30.226562 C -0.00390625 29.953125 -0.00390625 29.675781 -0.00390625 29.398438 C -0.00390625 29.066406 -0.00390625 28.738281 -0.00390625 28.40625 C -0.0078125 27.605469 -0.0078125 26.808594 -0.0078125 26.007812 C -0.0078125 25.628906 -0.0078125 25.25 -0.0078125 24.875 C -0.0078125 23.578125 -0.0078125 22.285156 -0.0078125 20.988281 C -0.0078125 20.90625 -0.0078125 20.824219 -0.0078125 20.746094 C -0.0078125 20.664062 -0.0078125 20.582031 -0.0078125 20.5 C -0.0078125 20.335938 -0.0078125 20.171875 -0.0078125 20.007812 C -0.0078125 19.96875 -0.0078125 19.929688 -0.0078125 19.886719 C -0.0078125 18.574219 -0.0078125 17.257812 -0.0078125 15.945312 C -0.0117188 14.554688 -0.0117188 13.164062 -0.0117188 11.777344 C -0.0117188 11.625 -0.0117188 11.472656 -0.0117188 11.316406 C -0.0117188 11.28125 -0.0117188 11.242188 -0.0117188 11.203125 C -0.0117188 10.601562 -0.0117188 9.996094 -0.0117188 9.390625 C -0.0117188 8.785156 -0.0117188 8.175781 -0.0117188 7.570312 C -0.0117188 7.207031 -0.0117188 6.847656 -0.0117188 6.488281 C -0.0117188 6.246094 -0.0117188 6.003906 -0.0117188 5.761719 C -0.0117188 5.625 -0.0117188 5.488281 -0.0117188 5.351562 C -0.015625 3.867188 0.300781 2.535156 1.363281 1.441406 C 2.5 0.296875 3.882812 -0.0234375 5.449219 -0.015625 Z M 5.449219 -0.015625 "/>
<path style=" stroke:none;fill-rule:nonzero;fill:rgb(0%,0%,0%);fill-opacity:1;" d="M 10.242188 8.535156 C 10.285156 8.535156 10.328125 8.535156 10.371094 8.535156 C 10.417969 8.535156 10.464844 8.535156 10.511719 8.535156 C 10.558594 8.535156 10.609375 8.535156 10.660156 8.535156 C 10.796875 8.535156 10.933594 8.535156 11.070312 8.535156 C 11.214844 8.535156 11.363281 8.535156 11.511719 8.535156 C 11.867188 8.535156 12.222656 8.535156 12.578125 8.535156 C 12.746094 8.535156 12.914062 8.53125 13.082031 8.53125 C 13.640625 8.53125 14.203125 8.53125 14.761719 8.53125 C 14.90625 8.53125 15.050781 8.53125 15.195312 8.53125 C 15.25 8.53125 15.25 8.53125 15.304688 8.53125 C 15.886719 8.53125 16.472656 8.53125 17.054688 8.527344 C 17.652344 8.527344 18.25 8.527344 18.851562 8.527344 C 19.1875 8.527344 19.523438 8.527344 19.859375 8.527344 C 20.144531 8.523438 20.433594 8.523438 20.71875 8.527344 C 20.863281 8.527344 21.011719 8.527344 21.15625 8.523438 C 22.039062 8.519531 22.9375 8.546875 23.789062 8.808594 C 23.828125 8.820312 23.871094 8.832031 23.914062 8.84375 C 24.667969 9.070312 25.339844 9.570312 25.757812 10.242188 C 25.789062 10.292969 25.789062 10.292969 25.820312 10.34375 C 26.953125 12.203125 26.886719 15.078125 26.558594 17.148438 C 26.550781 17.1875 26.550781 17.1875 26.546875 17.222656 C 26.351562 18.425781 25.953125 19.691406 24.933594 20.445312 C 24.679688 20.625 24.410156 20.769531 24.121094 20.886719 C 24.09375 20.898438 24.066406 20.910156 24.035156 20.921875 C 23.246094 21.234375 22.378906 21.257812 21.542969 21.257812 C 21.472656 21.257812 21.402344 21.257812 21.328125 21.257812 C 21.136719 21.257812 20.945312 21.257812 20.753906 21.257812 C 20.554688 21.257812 20.351562 21.257812 20.152344 21.257812 C 19.773438 21.257812 19.394531 21.253906 19.011719 21.253906 C 18.582031 21.253906 18.148438 21.253906 17.714844 21.253906 C 16.824219 21.253906 15.9375 21.253906 15.046875 21.253906 C 15.046875 21.296875 15.046875 21.296875 15.046875 21.34375 C 15.050781 22.058594 15.054688 22.777344 15.054688 23.496094 C 15.058594 23.84375 15.058594 24.1875 15.058594 24.535156 C 15.0625 24.839844 15.0625 25.140625 15.0625 25.445312 C 15.0625 25.605469 15.0625 25.765625 15.066406 25.925781 C 15.066406 26.074219 15.066406 26.226562 15.066406 26.375 C 15.066406 26.433594 15.066406 26.488281 15.066406 26.542969 C 15.074219 27.109375 15.074219 27.109375 14.878906 27.324219 C 14.675781 27.496094 14.460938 27.476562 14.203125 27.476562 C 14.15625 27.476562 14.113281 27.476562 14.066406 27.476562 C 13.945312 27.476562 13.824219 27.476562 13.703125 27.476562 C 13.601562 27.476562 13.5 27.476562 13.398438 27.476562 C 13.15625 27.480469 12.917969 27.480469 12.675781 27.476562 C 12.429688 27.476562 12.183594 27.476562 11.933594 27.480469 C 11.722656 27.480469 11.507812 27.480469 11.296875 27.480469 C 11.171875 27.480469 11.042969 27.480469 10.917969 27.480469 C 10.796875 27.480469 10.679688 27.480469 10.558594 27.480469 C 10.492188 27.480469 10.429688 27.480469 10.367188 27.480469 C 10.160156 27.480469 10.003906 27.464844 9.832031 27.355469 C 9.660156 27.164062 9.621094 26.960938 9.625 26.710938 C 9.625 26.679688 9.625 26.648438 9.625 26.617188 C 9.625 26.511719 9.625 26.410156 9.625 26.304688 C 9.625 26.230469 9.625 26.15625 9.625 26.082031 C 9.625 25.875 9.625 25.671875 9.625 25.464844 C 9.625 25.265625 9.625 25.066406 9.625 24.867188 C 9.625 24.4375 9.625 24.003906 9.625 23.574219 C 9.625 23.195312 9.625 22.816406 9.625 22.4375 C 9.625 22.414062 9.625 22.386719 9.625 22.363281 C 9.625 22.261719 9.625 22.160156 9.625 22.058594 C 9.625 21.101562 9.625 20.148438 9.625 19.195312 C 9.625 18.34375 9.625 17.496094 9.625 16.648438 C 9.625 15.695312 9.625 14.742188 9.625 13.789062 C 9.625 13.6875 9.625 13.585938 9.625 13.484375 C 9.625 13.460938 9.625 13.4375 9.625 13.410156 C 9.625 13.03125 9.625 12.652344 9.625 12.277344 C 9.625 11.847656 9.625 11.417969 9.625 10.988281 C 9.625 10.769531 9.625 10.550781 9.625 10.332031 C 9.625 10.128906 9.625 9.929688 9.625 9.730469 C 9.625 9.65625 9.625 9.582031 9.625 9.511719 C 9.625 9.414062 9.625 9.3125 9.625 9.214844 C 9.625 9.1875 9.625 9.15625 9.625 9.128906 C 9.625 8.949219 9.65625 8.851562 9.777344 8.707031 C 9.929688 8.566406 10.035156 8.535156 10.242188 8.535156 Z M 10.242188 8.535156 "/>
<path style=" stroke:none;fill-rule:nonzero;fill:rgb(99.607843%,99.607843%,99.607843%);fill-opacity:1;" d="M 15.046875 12.410156 C 15.789062 12.410156 16.53125 12.40625 17.296875 12.40625 C 17.53125 12.40625 17.765625 12.402344 18.003906 12.402344 C 18.292969 12.402344 18.292969 12.402344 18.425781 12.402344 C 18.519531 12.402344 18.613281 12.402344 18.707031 12.402344 C 20.273438 12.390625 20.273438 12.390625 20.769531 12.855469 C 21.074219 13.207031 21.171875 13.628906 21.242188 14.078125 C 21.25 14.132812 21.261719 14.1875 21.269531 14.238281 C 21.296875 14.425781 21.292969 14.613281 21.292969 14.804688 C 21.292969 14.875 21.292969 14.945312 21.292969 15.019531 C 21.296875 15.449219 21.273438 15.886719 21.128906 16.296875 C 21.113281 16.335938 21.113281 16.335938 21.101562 16.371094 C 20.972656 16.726562 20.765625 17.003906 20.433594 17.1875 C 20.0625 17.351562 19.695312 17.402344 19.292969 17.398438 C 19.246094 17.398438 19.199219 17.398438 19.152344 17.398438 C 19.023438 17.398438 18.898438 17.398438 18.773438 17.394531 C 18.65625 17.394531 18.539062 17.394531 18.417969 17.394531 C 18.074219 17.394531 17.730469 17.394531 17.386719 17.390625 C 16.613281 17.386719 15.84375 17.386719 15.046875 17.382812 C 15.046875 15.742188 15.046875 14.101562 15.046875 12.410156 Z M 15.046875 12.410156 "/>
</g>
</svg>
